<svg id="visual" viewBox="0 0 900 600" width="900" height="600" xmlns="http://www.w3.org/2000/svg" xmlns:xlink="http://www.w3.org/1999/xlink" version="1.1"><rect width="900" height="600" fill="#001829"></rect><g><g transform="translate(88 221)"><path d="M0 -62.8L54.4 -31.4L54.4 31.4L0 62.8L-54.4 31.4L-54.4 -31.4Z" fill="#297EA6"></path></g><g transform="translate(690 532)"><path d="M0 -51L44.2 -25.5L44.2 25.5L0 51L-44.2 25.5L-44.2 -25.5Z" fill="#297EA6"></path></g><g transform="translate(781 217)"><path d="M0 -52L45 -26L45 26L0 52L-45 26L-45 -26Z" fill="#297EA6"></path></g><g transform="translate(408 215)"><path d="M0 -59L51.1 -29.5L51.1 29.5L0 59L-51.1 29.5L-51.1 -29.5Z" fill="#297EA6"></path></g><g transform="translate(654 164)"><path d="M0 -53L45.9 -26.5L45.9 26.5L0 53L-45.9 26.5L-45.9 -26.5Z" fill="#297EA6"></path></g><g transform="translate(347 377)"><path d="M0 -52L45 -26L45 26L0 52L-45 26L-45 -26Z" fill="#297EA6"></path></g><g transform="translate(150 111)"><path d="M0 -47L40.7 -23.5L40.7 23.5L0 47L-40.7 23.5L-40.7 -23.5Z" fill="#297EA6"></path></g><g transform="translate(213 484)"><path d="M0 -52L45 -26L45 26L0 52L-45 26L-45 -26Z" fill="#297EA6"></path></g></g></svg>